<?xml version="1.0" standalone="no"?>
<!DOCTYPE svg PUBLIC "-//W3C//DTD SVG 20010904//EN"
 "http://www.w3.org/TR/2001/REC-SVG-20010904/DTD/svg10.dtd">
<svg version="1.0" xmlns="http://www.w3.org/2000/svg"
 width="400.000000pt" height="257.000000pt" viewBox="0 0 400.000000 257.000000"
 preserveAspectRatio="xMidYMid meet">
<metadata>
Created by potrace 1.15, written by Peter Selinger 2001-2017
</metadata>
<g transform="translate(0.000000,257.000000) scale(0.100000,-0.100000)"
fill="#000000" stroke="none">
<path d="M1738 2454 c-160 -25 -319 -98 -375 -170 -20 -27 -33 -34 -62 -35
l-36 -1 -523 -785 c-287 -432 -521 -787 -520 -789 3 -2 169 -16 433 -34 158
-11 331 -24 530 -40 66 -6 149 -13 185 -15 36 -3 108 -10 161 -16 95 -10 172
0 254 31 22 9 31 5 68 -28 91 -83 100 -87 347 -146 234 -56 821 -204 1080
-272 74 -20 139 -37 144 -38 5 0 13 13 17 29 11 39 121 647 209 1155 12 69 30
172 40 230 10 58 33 186 50 285 17 99 33 187 35 195 4 11 -19 22 -90 44 -52
16 -95 33 -95 37 0 4 -9 11 -20 14 -11 3 -22 16 -26 29 -10 43 -257 179 -414
229 -264 84 -532 73 -665 -28 l-43 -33 -89 43 c-133 66 -281 104 -463 119 -25
2 -84 -2 -132 -10z m325 -30 c126 -26 323 -103 342 -134 3 -5 -8 -41 -25 -80
-52 -118 -123 -321 -235 -665 -132 -408 -200 -600 -266 -752 -28 -65 -53 -120
-55 -122 -2 -2 -34 25 -71 60 -115 110 -244 176 -453 230 -180 47 -358 64
-506 50 -67 -6 -152 -20 -190 -31 -38 -10 -70 -17 -72 -15 -3 2 11 23 31 47
88 109 245 353 694 1078 67 107 132 205 145 216 65 60 217 119 343 134 86 10
227 3 318 -16z m967 -46 c137 -33 245 -79 403 -171 102 -60 97 -43 72 -262
-39 -333 -248 -1575 -265 -1575 -3 0 -72 38 -153 84 -327 187 -583 273 -837
283 -145 6 -250 -8 -353 -47 -28 -11 -52 -18 -54 -16 -2 1 11 34 28 72 69 151
133 327 264 729 142 432 200 599 262 742 30 71 42 87 81 113 118 78 347 98
552 48z m-1950 -478 c-116 -177 -339 -514 -496 -748 -157 -233 -288 -430 -290
-437 -4 -9 17 -14 78 -19 46 -3 153 -11 238 -17 85 -6 191 -14 235 -19 74 -7
76 -7 24 -9 -30 0 -102 3 -160 8 -57 6 -182 15 -277 22 -94 6 -172 13 -172 15
0 1 41 63 92 136 88 128 733 1098 865 1302 35 54 66 96 69 93 3 -2 -90 -150
-206 -327z m35 -17 c-329 -533 -512 -810 -607 -919 -22 -25 -25 -33 -14 -37
14 -5 41 15 32 24 -2 2 5 5 17 5 12 1 67 12 122 24 87 19 121 21 265 17 176
-5 293 -22 430 -63 100 -30 230 -89 294 -133 52 -36 146 -125 146 -139 0 -6
-12 -13 -26 -16 -20 -5 -33 0 -58 22 -89 78 -263 163 -394 193 -156 35 -368
28 -654 -21 -220 -37 -222 -37 -183 -3 28 24 28 26 7 20 -19 -4 -22 -2 -18 10
6 14 4 14 -10 2 -11 -9 -12 -15 -5 -17 9 -3 9 -7 0 -18 -15 -18 -21 -71 -9
-79 5 -3 11 -1 15 5 3 5 0 10 -7 10 -9 0 -8 4 2 13 8 8 107 29 220 48 186 31
223 34 400 33 182 0 201 -2 285 -27 116 -35 235 -94 310 -154 59 -47 59 -48
31 -51 -18 -2 -36 4 -50 16 -27 26 -167 112 -180 112 -6 0 21 -18 59 -41 39
-22 85 -52 104 -67 31 -23 32 -26 15 -33 -10 -3 -24 -2 -31 3 -7 5 -17 7 -23
3 -5 -3 -67 -2 -137 4 -224 18 -494 40 -613 51 -63 5 -194 14 -290 21 -96 6
-190 14 -207 17 l-32 7 322 485 c177 267 401 606 497 752 96 147 176 265 179
263 2 -2 -90 -156 -204 -342z m2434 204 c0 7 7 10 15 7 15 -6 14 -18 -10 -229
-24 -204 -227 -1417 -260 -1552 -4 -13 -11 -20 -19 -17 -8 3 -12 11 -9 19 4 9
-4 11 -26 9 -18 -2 -29 0 -25 6 4 6 -1 7 -11 3 -12 -4 -15 -3 -10 5 4 7 2 10
-7 6 -8 -3 -126 46 -263 109 -359 165 -475 206 -636 226 -97 11 -203 -1 -300
-35 -100 -35 -123 -40 -113 -24 5 8 4 11 -2 7 -6 -4 -16 0 -23 8 -11 13 -5 18
34 35 161 72 429 78 646 15 176 -51 398 -151 599 -269 63 -36 118 -63 122 -59
9 10 75 369 133 723 78 474 95 581 113 717 9 74 21 129 26 126 5 -3 6 4 2 16
-4 12 -3 61 1 109 6 66 9 80 15 57 4 -16 7 -25 8 -18z m62 -82 c10 23 3 -136
-11 -230 -5 -33 -11 -82 -15 -110 -9 -72 -39 -260 -121 -765 -30 -183 -113
-650 -119 -667 -5 -15 -126 32 -440 171 -477 213 -631 243 -852 167 -75 -26
-89 -28 -106 -16 -18 13 -16 15 29 39 27 14 45 25 39 25 -5 1 -29 -10 -52 -23
-34 -19 -44 -22 -53 -11 -8 10 2 17 42 33 180 71 352 69 570 -7 104 -36 278
-113 273 -120 -2 -5 7 -13 21 -20 35 -16 44 -13 14 4 -39 22 -16 18 34 -7 25
-12 42 -26 39 -31 -4 -6 1 -8 11 -4 9 4 15 3 12 -2 -6 -10 24 -25 32 -16 3 3
-1 5 -8 5 -7 0 -11 2 -8 5 9 10 78 -28 71 -38 -4 -6 1 -8 11 -4 9 4 15 3 12
-2 -3 -4 6 -13 20 -20 35 -16 44 -13 14 4 -30 17 -21 20 14 4 14 -7 23 -16 19
-22 -3 -6 -1 -7 5 -3 7 4 20 2 29 -3 10 -6 14 -11 8 -11 -13 0 16 -20 30 -20
6 0 3 5 -5 10 -8 5 -10 10 -5 9 14 0 62 -28 50 -29 -12 -1 36 -29 50 -29 6 0
-1 7 -15 15 -17 10 -18 13 -5 9 52 -18 52 -18 64 32 11 47 51 270 90 493 88
502 164 990 177 1130 11 118 15 134 22 75 3 -33 6 -37 13 -20z m68 28 c22 -5
23 -9 17 -62 -10 -92 -65 -414 -187 -1106 -11 -60 -35 -202 -55 -315 -19 -113
-41 -240 -49 -284 -8 -43 -15 -79 -15 -81 0 -1 -120 28 -267 66 -269 70 -867
219 -1040 259 -51 12 -93 23 -93 25 0 10 135 46 200 54 158 20 322 -23 660
-174 273 -122 481 -207 495 -202 14 6 85 396 204 1132 71 441 97 685 71 685
-5 0 -10 5 -10 11 0 7 8 9 23 4 12 -3 33 -9 46 -12z m67 -50 c-3 -16 -22 -125
-41 -243 -20 -118 -58 -336 -85 -485 -72 -392 -200 -1105 -200 -1109 0 -3 -84
18 -187 45 -146 38 -841 212 -1205 301 -27 7 -48 15 -48 18 0 12 664 -151
1250 -306 90 -24 167 -40 171 -36 4 4 12 39 19 77 6 39 20 117 30 175 44 244
53 296 91 520 22 129 64 379 94 555 30 176 61 360 69 409 9 49 16 93 16 97 0
5 7 9 16 9 12 0 14 -7 10 -27z"/>
<path d="M875 805 c-55 -7 -167 -24 -248 -39 -82 -15 -158 -26 -170 -24 -11 2
-22 -2 -24 -9 -5 -14 12 -12 177 17 283 51 473 63 606 39 119 -21 267 -80 342
-136 18 -14 36 -23 38 -20 3 3 -14 18 -38 35 -176 121 -417 169 -683 137z"/>
</g>
</svg>
